# xmcd
#
# Track frame offsets: 
#        150
#        19974
#        34080
#        51128
#        52497
#        65767
#        83838
#        99265
#        118395
#        135558
#        137157
#        159366
#        178546
#        190047
#
# Disc length: 2798 seconds
#
# Revision: 0
# Processed by: cddbd v1.5.1PL0 Copyright (c) Steve Scherf et al.
# Submitted via: ExactAudioCopy v0.95a5
#
DISCID=c70aec0e
DTITLE=Deb Callahan - If the Blues had Wings
DYEAR=2004
DGENRE=Blues
TTITLE0=mama's curse, mama's blessing
TTITLE1=can't watch you bleed
TTITLE2=more love
TTITLE3=any kinda man
TTITLE4=burning bridges
TTITLE5=out there
TTITLE6=coffee grind
TTITLE7=broken down man
TTITLE8=something bad
TTITLE9=little drops of water
TTITLE10=if your man messes up
TTITLE11=tell me
TTITLE12=just another victim
TTITLE13=positively 4th street
EXTD=
EXTT0=
EXTT1=
EXTT2=
EXTT3=
EXTT4=
EXTT5=
EXTT6=
EXTT7=
EXTT8=
EXTT9=
EXTT10=
EXTT11=
EXTT12=
EXTT13=
PLAYORDER=
